<svg xmlns="http://www.w3.org/2000/svg" version="1.1" xmlns:xlink="http://www.w3.org/1999/xlink" xmlns:svgjs="http://svgjs.dev/svgjs" width="300" height="300" viewBox="0 0 1000 1000"><rect width="1000" height="1000" fill="#1b4571"></rect><g transform="matrix(0.7,0,0,0.7,149.57575757575756,282.1265587044535)"><svg viewBox="0 0 396 247" data-background-color="#1b4571" preserveAspectRatio="xMidYMid meet" height="623" width="1000" xmlns="http://www.w3.org/2000/svg" xmlns:xlink="http://www.w3.org/1999/xlink"><g id="tight-bounds" transform="matrix(1,0,0,1,0.2400000000000091,-0.09999999999999432)"><svg viewBox="0 0 395.52 247.2" height="247.2" width="395.52"><g><svg></svg></g><g><svg viewBox="0 0 395.52 247.2" height="247.2" width="395.52"><g transform="matrix(1,0,0,1,75.54432000000001,79.17240250431331)"><svg viewBox="0 0 244.43135999999996 88.85519499137337" height="88.85519499137337" width="244.43135999999996"><g><svg viewBox="0 0 244.43135999999996 88.85519499137337" height="88.85519499137337" width="244.43135999999996"><g><svg viewBox="0 0 415.16407929834884 150.9196087583393" height="88.85519499137337" width="244.43135999999996"><g transform="matrix(1,0,0,1,0,7.095521548945314)"><svg viewBox="0 0 244.43135999999996 136.72856566044868" height="136.72856566044868" width="244.43135999999996"><g id="textblocktransform"><svg viewBox="0 0 244.43135999999996 136.72856566044868" height="136.72856566044868" width="244.43135999999996" id="textblock"><g><svg viewBox="0 0 244.43135999999996 83.33815728133703" height="83.33815728133703" width="244.43135999999996"><g transform="matrix(1,0,0,1,0,0)"><svg width="244.43135999999996" viewBox="1.17 -29.1 87.64 29.880000000000003" height="83.33815728133703" data-palette-color="#ffffff"><path d="M11.52 0L1.51 0 1.42-1.76 4.44-2.49Q4.49-2.83 4.52-3.42 4.54-4 4.59-5.03 4.64-6.05 4.64-7.71L4.64-7.71 4.69-11.47Q4.69-13.09 4.57-14.7 4.44-16.31 4.3-17.19L4.3-17.19 1.17-17.87 1.17-19.48 7.71-21.29 8.54-20.51 8.3-17.92 8.45-17.87Q10.16-19.73 11.82-20.56 13.48-21.39 15.43-21.39L15.43-21.39Q17.24-21.39 18.82-20.48 20.41-19.58 21.41-17.7 22.41-15.82 22.41-12.99L22.41-12.99 22.41-7.57Q22.41-5.81 22.49-4.39 22.56-2.98 22.71-2.49L22.71-2.49 25.73-1.76 25.59 0 15.77 0 15.67-1.76 18.51-2.49Q18.55-2.88 18.6-3.47 18.65-4.05 18.68-4.98 18.7-5.91 18.7-7.23L18.7-7.23 18.7-12.5Q18.7-14.7 17.94-15.99 17.19-17.29 16.06-17.85 14.94-18.41 13.77-18.41L13.77-18.41Q12.16-18.41 10.79-17.63 9.42-16.85 8.4-15.38L8.4-15.38 8.4-8.06Q8.4-5.76 8.47-4.39 8.54-3.03 8.64-2.49L8.64-2.49 11.67-1.76 11.52 0ZM42.82-4.25L43.7-3.03Q42.77-1.42 41.16-0.51 39.55 0.39 37.79 0.39L37.79 0.39Q34.86 0.39 32.93-1.42 31-3.22 31-6.84L31-6.84 31.15-18.51 27.73-18.51 27.73-19.53 34.03-25.24 34.96-25.24 34.86-19.63 34.81-7.62Q34.81-5.08 35.91-3.86 37.01-2.64 39.01-2.64L39.01-2.64Q40.13-2.64 41.09-3.1 42.04-3.56 42.82-4.25L42.82-4.25ZM42.23-18.51L33.1-18.51 33.1-20.95 42.23-20.95 42.23-18.51ZM45.16 0.1L45.16 0.1 44.97-1.61Q49.65-5.71 52.41-8.81 55.17-11.91 56.37-14.53 57.56-17.14 57.56-19.68L57.56-19.68Q57.56-22.41 56.07-24.05 54.58-25.68 51.9-25.68L51.9-25.68Q47.85-25.68 45.36-21.78L45.36-21.78 43.99-22.75Q45.21-25.73 47.63-27.42 50.04-29.1 53.12-29.1L53.12-29.1Q55.76-29.1 57.76-28.05 59.76-27 60.91-25.1 62.06-23.19 62.06-20.65L62.06-20.65Q62.06-16.65 58.74-12.16 55.41-7.67 48.92-2.93L48.92-2.93 49.07-3.66 59.32-3.66Q59.86-3.66 60.32-3.71 60.79-3.76 61.08-3.86L61.08-3.86 62.69-7.91 64.69-7.71 63.57 0.2Q62.84 0.1 62.03 0.07 61.23 0.05 60.4 0.02 59.57 0 58.54 0L58.54 0 48.77 0Q47.85 0 46.94 0.02 46.04 0.05 45.16 0.1ZM85-18.51L85.1-16.75Q83.83-14.45 81.83-13.11 79.83-11.77 77.53-11.77L77.53-11.77Q75.19-11.77 73.31-12.82 71.43-13.87 70.33-15.7 69.23-17.53 69.23-19.82L69.23-19.82Q69.23-22.27 70.48-24.39 71.72-26.51 73.92-27.81 76.12-29.1 78.85-29.1L78.85-29.1Q81.83-29.1 84.07-27.76 86.32-26.42 87.57-23.97 88.81-21.53 88.81-18.21L88.81-18.21Q88.81-14.65 87.59-11.5 86.37-8.35 84.15-5.81 81.93-3.27 78.78-1.59 75.63 0.1 71.77 0.78L71.77 0.78 70.99-1.42Q75.38-2.54 78.34-4.79 81.29-7.03 82.78-10.4 84.27-13.77 84.27-18.16L84.27-18.16Q84.27-20.8 83.56-22.73 82.85-24.66 81.56-25.73 80.27-26.81 78.46-26.81L78.46-26.81Q76.36-26.81 74.99-25.2 73.63-23.58 73.63-21L73.63-21Q73.63-18.31 75.16-16.65 76.7-14.99 79.14-14.99L79.14-14.99Q80.31-14.99 81.39-15.41 82.46-15.82 83.37-16.63 84.27-17.43 85-18.51L85-18.51Z" opacity="1" transform="matrix(1,0,0,1,0,0)" fill="#ffffff" class="wordmark-text-0" data-fill-palette-color="primary" id="text-0"></path></svg></g></svg></g><g transform="matrix(1,0,0,1,0,103.01229609968595)"><svg viewBox="0 0 244.43135999999996 33.716269560762726" height="33.716269560762726" width="244.43135999999996"><g transform="matrix(1,0,0,1,0,0)"><svg width="244.43135999999996" viewBox="7.08 -35.01 257.33000000000004 35.5" height="33.716269560762726" data-palette-color="#ffffff"><path d="M7.08 0L7.08-34.69 11.23-34.69 11.23-3.64 26.81-3.64 26.81 0 7.08 0ZM35.47 0L35.47-34.69 39.62-34.69 39.62 0 35.47 0ZM63.4-31.52L56.71-31.52 56.71-19.87Q57.17-19.9 58.32-19.91 59.47-19.92 60.1-19.93 60.74-19.95 61.88-20.03 63.03-20.12 63.73-20.23 64.42-20.34 65.41-20.57 66.4-20.8 67.02-21.11 67.65-21.41 68.34-21.89 69.04-22.36 69.43-22.95 69.82-23.54 70.08-24.35 70.33-25.17 70.33-26.15L70.33-26.15Q70.33-26.88 70.19-27.54 70.04-28.2 69.58-28.96 69.11-29.71 68.38-30.25 67.65-30.79 66.36-31.15 65.08-31.52 63.4-31.52L63.4-31.52ZM56.71-16.65L56.71-16.65 56.71-3.66 63.18-3.66Q64.06-3.66 64.66-3.67 65.25-3.69 66.38-3.82 67.5-3.96 68.29-4.19 69.09-4.42 70.06-4.9 71.04-5.37 71.64-6.03 72.24-6.69 72.65-7.73 73.07-8.76 73.07-10.08L73.07-10.08Q73.07-13.33 70.55-15.16 68.04-16.99 63.79-16.99L63.79-16.99Q63.33-16.99 56.71-16.65ZM52.56 0L52.56-34.69 64.79-34.69Q66.57-34.69 68.05-34.31 69.53-33.94 70.49-33.35 71.45-32.76 72.2-31.96 72.94-31.15 73.33-30.4 73.73-29.64 73.97-28.78 74.21-27.93 74.27-27.38 74.34-26.83 74.34-26.34L74.34-26.34Q74.34-24.22 72.9-22.11 71.45-20 69.84-19.38L69.84-19.38Q73.07-18.8 75.13-16.27 77.19-13.75 77.19-10.52L77.19-10.52Q77.19-9.77 77.06-8.94 76.92-8.11 76.53-7.06 76.14-6.01 75.53-5.05 74.92-4.1 73.87-3.16 72.82-2.22 71.47-1.54 70.11-0.85 68.15-0.43 66.18 0 63.84 0L63.84 0 52.56 0ZM110.22-25.17L110.22-25.17Q110.22-23.44 109.81-21.88 109.39-20.31 108.51-18.9 107.63-17.48 106.08-16.44 104.53-15.41 102.46-14.92L102.46-14.92 112.25 0 107.61 0 98.21-14.45 91.5-14.45 91.5 0 87.32 0 87.32-34.69 100.07-34.69Q100.94-34.69 101.65-34.64 102.36-34.59 103.47-34.39 104.58-34.18 105.44-33.83 106.29-33.47 107.23-32.75 108.17-32.03 108.79-31.05 109.42-30.08 109.82-28.56 110.22-27.05 110.22-25.17ZM91.5-31.05L91.5-18.12 97.48-18.12Q98.72-18.12 99.68-18.2 100.63-18.29 101.91-18.66 103.19-19.04 104.03-19.71 104.88-20.39 105.47-21.67 106.07-22.95 106.07-24.71L106.07-24.71Q106.07-25.95 105.75-26.95 105.44-27.95 104.95-28.6 104.46-29.25 103.75-29.72 103.04-30.2 102.39-30.44 101.73-30.69 100.92-30.83 100.11-30.98 99.59-31.02 99.06-31.05 98.48-31.05L98.48-31.05 91.5-31.05ZM142.76 0L122.43 0 122.43-34.69 142.76-34.69 142.76-31.03 126.58-31.03 126.58-19.7 141.42-19.7 141.42-16.04 126.58-16.04 126.58-3.66 142.76-3.66 142.76 0ZM167.42 0L167.42-34.69 172.67-34.69 191.56-5.66 191.56-34.69 195.71-34.69 195.71 0 190.46 0 171.57-29.08 171.57 0 167.42 0ZM204.01 0L216.34-34.69 221.05-34.69 233.38 0 229.18 0 225.67-10.08 211.36-10.08 207.84 0 204.01 0ZM224.4-13.72L218.51-30.64 212.6-13.72 224.4-13.72ZM254.64-35.01L254.64-35.01Q258.65-35.01 263.26-33.62L263.26-33.62 261.92-29.83Q257.52-31.1 254.3-31.1L254.3-31.1Q250.69-31.1 248.19-29.58 245.68-28.05 245.68-25.63L245.68-25.63Q245.68-24.29 246.49-23.24 247.29-22.19 248.61-21.53 249.93-20.87 251.62-20.23 253.3-19.58 255.05-19.04 256.79-18.51 258.48-17.68 260.16-16.85 261.48-15.86 262.8-14.87 263.6-13.28 264.41-11.69 264.41-9.69L264.41-9.69Q264.41-8.3 263.97-6.92 263.53-5.54 262.5-4.19 261.48-2.83 259.97-1.81 258.45-0.78 256.14-0.15 253.84 0.49 251.01 0.49 248.17 0.49 245.79-0.1 243.41-0.68 240.46-1.86L240.46-1.86 241.87-5.88Q247.98-3.61 251.52-3.61L251.52-3.61Q255.23-3.61 257.56-5.1 259.89-6.59 259.89-9.08L259.89-9.08Q259.89-10.74 258.85-11.95 257.82-13.16 256.17-13.9 254.52-14.65 252.52-15.3 250.52-15.94 248.53-16.69 246.54-17.43 244.89-18.41 243.24-19.38 242.2-21.04 241.17-22.71 241.17-24.95L241.17-24.95Q241.17-26.95 242.13-28.78 243.1-30.62 244.8-31.99 246.51-33.37 249.08-34.19 251.64-35.01 254.64-35.01Z" opacity="1" transform="matrix(1,0,0,1,0,0)" fill="#ffffff" class="slogan-text-1" data-fill-palette-color="secondary" id="text-1"></path></svg></g></svg></g></svg></g></svg></g><g transform="matrix(1,0,0,1,264.1054988183489,0)"><svg viewBox="0 0 151.05858047999996 150.9196087583393" height="150.9196087583393" width="151.05858047999996"><g><svg xmlns="http://www.w3.org/2000/svg" xmlns:xlink="http://www.w3.org/1999/xlink" version="1.1" x="0" y="0" viewBox="17.565250000000002 12.853000000000005 50.80373870900118 50.75699999999999" enable-background="new 0 0 80 80" xml:space="preserve" height="150.9196087583393" width="151.05858047999996" class="icon-icon-0" data-fill-palette-color="accent" id="icon-0"><g fill="#bf2051" data-fill-palette-color="accent"><path fill="#bf2051" d="M24.562 63.61c-1.87 0-3.628-0.728-4.95-2.05-2.729-2.73-2.729-7.17 0-9.9l14.116-14.116c-2.121-5.344-1.598-11.506 1.467-16.403 3.246-5.19 9.01-8.288 15.419-8.288 0.206 0 0.413 0.003 0.618 0.01 1.202 0.039 2.265 0.786 2.707 1.904 0.442 1.117 0.18 2.387-0.669 3.236l-8.178 8.176c-0.403 0.403-0.403 1.061 0.001 1.465l8.435 8.435c0.391 0.391 1.074 0.391 1.465 0l8.213-8.213c0.569-0.569 1.321-0.883 2.119-0.883 1.606 0 2.933 1.258 3.019 2.864 0.269 5.092-1.644 10.078-5.246 13.68-3.397 3.398-7.916 5.27-12.723 5.27 0 0 0 0-0.001 0-2.319 0-4.636-0.454-6.777-1.321L29.512 61.56C28.19 62.882 26.433 63.61 24.562 63.61zM48.637 16.979c-4.207 0.542-7.875 2.805-10.051 6.283-2.591 4.142-2.852 9.445-0.681 13.84l0.636 1.286-16.101 16.1c-1.169 1.17-1.169 3.073 0 4.243 1.133 1.132 3.11 1.133 4.243 0L42.77 42.646l1.292 0.652c1.941 0.98 4.125 1.498 6.313 1.498 3.738 0 7.252-1.455 9.895-4.098 2.231-2.231 3.629-5.146 4-8.24l-6.448 6.448c-0.951 0.951-2.216 1.475-3.561 1.475s-2.609-0.523-3.561-1.474l-8.436-8.436c-1.962-1.963-1.962-5.157-0.001-7.12L48.637 16.979z" data-fill-palette-color="accent"></path></g></svg></g></svg></g></svg></g></svg></g></svg></g><g><path d="M245.816 0c68.262 0 123.6 55.338 123.6 123.6 0 68.262-55.338 123.6-123.6 123.6-50.382 0-93.723-30.144-112.972-73.381l2.427 0c19.102 41.981 61.415 71.168 110.545 71.169 67.041 0 121.388-54.347 121.387-121.388 0-67.041-54.347-121.388-121.387-121.388-49.13 0-91.443 29.187-110.545 71.169l-2.427 0c19.249-43.237 62.59-73.381 112.972-73.381z" fill="#ffffff" stroke="transparent" data-fill-palette-color="tertiary"></path></g></svg></g><defs></defs></svg><rect width="395.52" height="247.2" fill="none" stroke="none" visibility="hidden"></rect></g></svg></g></svg>